<?xml version="1.0" encoding="UTF-8"?>
<svg width="200px" height="200px" viewBox="0 0 200 200" version="1.1" xmlns="http://www.w3.org/2000/svg" xmlns:xlink="http://www.w3.org/1999/xlink">
    <title>hidden</title>
    <g id="-" stroke="none" stroke-width="1" fill="none" fill-rule="evenodd">
        <g id="hidden" transform="translate(100, 100) rotate(180) translate(-100, -100)" fill="#EC655F" fill-rule="nonzero">
            <path d="M100,0 C44.771525,0 0,44.771525 0,100 C0,155.228475 44.771525,200 100,200 C155.228475,200 200,155.228475 200,100 C200,73.478351 189.464316,48.0429597 170.710678,29.2893219 C151.95704,10.535684 126.521649,0 100,0 L100,0 Z M100,180 C55.8172201,180 20.0000001,144.18278 20.0000001,100 C20.0000001,55.8172201 55.8172201,20.0000001 100,20.0000001 C144.18278,20.0000001 180,55.8172201 180,100 C180,121.217319 171.571453,141.565632 156.568542,156.568542 C141.565632,171.571453 121.217319,180 100,180 L100,180 Z M108.66,63.3200001 C103.570689,59.3455367 96.4293109,59.3455367 91.3400001,63.3200001 L52.98,101.67 C48.7412145,105.908785 48.7412145,112.781215 52.98,117.02 C57.2187855,121.258786 64.0912146,121.258786 68.3300001,117.02 L100,85.3400001 L131.67,117.02 C135.908785,121.258786 142.781215,121.258786 147.02,117.02 C151.258786,112.781215 151.258786,105.908785 147.02,101.67 L108.66,63.3200001 Z" id="形状"></path>
        </g>
    </g>
</svg>