<?xml version="1.0" encoding="UTF-8"?>
<svg width="27px" height="27px" viewBox="0 0 27 27" version="1.1" xmlns="http://www.w3.org/2000/svg" xmlns:xlink="http://www.w3.org/1999/xlink">
    <g  stroke="none" stroke-width="1" fill="none" fill-rule="evenodd">
        <g  transform="translate(-1606, -85)" fill="#414141" fill-rule="nonzero" stroke="#414141" stroke-width="1.2">
            <g  transform="translate(1607, 86)">
                <path d="M12.5,0 C19.4038043,0 25,5.59619564 25,12.5 C25,19.4038044 19.4038043,25 12.5,25 C5.59619567,25 0,19.4038043 0,12.5 C0,5.59619567 5.59619567,0 12.5,0 Z M21.1994565,6.93478262 L21.1913044,6.94130436 C20.6173913,7.38152175 19.8815217,7.60869566 19.0217391,7.60869566 C18.6228261,7.60869566 18.2934782,7.56793479 17.8163044,7.46032609 L17.5402174,7.3951087 L16.7766304,7.19945653 L16.5266304,7.13967391 C16.4879127,7.13075526 16.4491439,7.12205946 16.4103261,7.11358695 L16.1967391,7.07010871 L16.0048913,7.03750001 C15.4293478,6.95163044 15.1548913,7.03423914 14.898913,7.2902174 C14.8211956,7.3679348 14.7516304,7.47880437 14.6777174,7.65434783 L14.6211957,7.79728262 L14.5619565,7.96793478 L14.5315217,8.06413043 L14.4663043,8.27989132 L14.2918478,8.91304348 C14.2489131,9.06739132 14.2108696,9.19836957 14.1722826,9.32608695 C13.4711957,11.6163043 12.1288044,12.875 9.30271739,13.0418478 C6.87336957,13.1842391 4.87228262,12.188587 3.4125,10.4467391 C3.13313409,10.1114127 2.87916872,9.75571583 2.65271739,9.3826087 C2.33444477,10.3910948 2.17296054,11.4424837 2.17390887,12.5 C2.17390887,18.2027174 6.79728263,22.8260869 12.5,22.8260869 C18.2027174,22.8260869 22.8260869,18.2027174 22.8260869,12.5 C22.8260869,10.4510869 22.2293478,8.54076088 21.1994565,6.93478262 Z M15.4891304,13.0434783 C16.3907609,13.0434783 16.8923913,13.4407609 17.4782609,14.2445652 L17.5923913,14.4021739 L17.7152174,14.5652174 L17.7798913,14.6434783 L17.7983696,14.663587 L17.85,14.7125 L17.9282609,14.7777174 L18.1929348,14.9880435 C18.7402174,15.4402174 19.0217391,15.8625 19.0217391,16.576087 C19.0217391,19.0347826 15.0978261,21.1521739 12.8913043,19.3130435 C10.5576087,17.3684783 12.9652174,13.0434783 15.4891304,13.0434783 Z M15.4690217,15.2184783 L15.4336956,15.2211957 C14.7380435,15.3190217 13.7244565,17.1777174 14.2826087,17.6434783 C14.6423913,17.9423913 15.2157609,17.9320652 15.8559783,17.586413 C16.3396739,17.3255435 16.6994565,16.9391304 16.811413,16.7038043 L16.8228261,16.6755435 L16.5336956,16.4456522 C16.3414562,16.2936359 16.1686054,16.1185948 16.0190217,15.9244565 L15.9005435,15.7695652 L15.7211957,15.523913 L15.6304348,15.4027174 L15.5597826,15.313587 C15.5500031,15.3020144 15.540038,15.2905999 15.5298913,15.2793478 L15.4804348,15.2288044 L15.4690217,15.2184783 L15.4690217,15.2184783 Z M12.5,2.17390394 C8.88532609,2.17390394 5.70434783,4.03097828 3.85978262,6.84347827 C4.01141306,7.39456523 4.46630436,8.31956522 5.07934784,9.05054347 C6.12173913,10.2951087 7.48097827,10.9711956 9.17554348,10.8711957 C10.9570652,10.7668478 11.6021739,10.2065217 12.0538043,8.81467392 L12.1179348,8.60815218 L12.3472826,7.78369565 L12.4407609,7.46413043 C12.6864131,6.65760868 12.9173913,6.19782607 13.3619565,5.75326087 C14.3646739,4.75054348 15.2891304,4.63586958 16.9331522,5.00326087 L17.2608696,5.08043478 L17.4315217,5.12282608 L17.9951087,5.26793478 L18.2097826,5.31956522 L18.3961956,5.36086956 L18.4798913,5.37717391 L18.6331522,5.40380436 L18.7038043,5.41358697 L18.8358696,5.42771739 L18.898913,5.43152175 L19.0217391,5.43478262 C19.3875,5.43478262 19.6478261,5.37336957 19.8396739,5.23695652 C17.9023603,3.27374512 15.258146,2.17024332 12.5,2.17390394 Z" id="形状"></path>
            </g>
        </g>
    </g>
</svg>