<?xml version="1.0" encoding="UTF-8"?>
<svg viewBox="0 0 60 66" version="1.1" xmlns="http://www.w3.org/2000/svg" xmlns:xlink="http://www.w3.org/1999/xlink">
    <title>编组 16</title>
    <g stroke="none" stroke-width="1" fill="none" fill-rule="evenodd">
        <g transform="translate(-1700, -670)" fill="#F4F4F4" fill-rule="nonzero">
            <g transform="translate(1188, 614)">
                <g transform="translate(512, 56)">
                    <path d="M30.4137008,66 C13.6435643,66 0,52.5782754 0,36.0791065 C0,19.5827361 13.6435643,6.16101147 30.4137008,6.16101147 C35.4930947,6.16101147 40.5257256,7.42034759 44.9682078,9.80189213 C47.1482975,10.9735412 47.9666495,13.6909087 46.7919637,15.8681609 C45.628501,18.0491445 42.9050256,18.864448 40.7127775,17.6900005 C37.5740469,16.0052886 34.0144496,15.1162906 30.4137008,15.1162906 C18.5938924,15.1162906 8.97849036,24.5202665 8.97849036,36.0791065 C8.97849036,47.640745 18.5938924,57.0447209 30.4137008,57.0447209 C40.1871617,57.0447209 48.7214039,50.5875915 51.1643014,41.3440643 C51.8012131,38.9541242 54.2618806,37.530608 56.6533389,38.1574775 C59.0494736,38.7899441 60.482291,41.2386532 59.8509909,43.6295262 C56.3606027,56.7993835 44.2555402,66 30.4137008,66 L30.4137008,66 Z" id="路径"></path>
                    <path d="M50.0784653,1.29157844 C49.4986044,-0.186975455 47.517725,-0.460298037 46.5581488,0.806500822 L32.0971678,19.8924395 C31.1375916,21.1592383 31.9409795,22.9857421 33.5253089,23.1387281 L56.3353507,25.3393014 C57.8457947,25.4857575 58.9793291,23.9885468 58.4265908,22.5780903 L50.0784653,1.29157844 Z" id="路径"></path>
                </g>
            </g>
        </g>
    </g>
</svg>