<?xml version="1.0" encoding="UTF-8"?>
<svg width="26px" height="26px" viewBox="0 0 26 26" version="1.1" xmlns="http://www.w3.org/2000/svg" xmlns:xlink="http://www.w3.org/1999/xlink">
    <g stroke="none" stroke-width="1" fill="none" fill-rule="evenodd">
        <g transform="translate(-1574, -86)" fill="#414141" fill-rule="nonzero">
            <g transform="translate(240, 30)">
                <g  transform="translate(80, 20)">
                    <g transform="translate(545, 27)">
                        <g transform="translate(709, 9)">
                            <path d="M25.1770671,21.7024226 L21.5115775,18.0462839 C22.6922099,16.2165867 23.3784728,14.0417865 23.3784728,11.7009461 C23.3784728,5.23514785 18.1485641,0 11.6892364,0 C5.22990878,0 0,5.24165922 0,11.7009461 C0,18.1667444 5.22990878,23.4018922 11.6892364,23.4018922 C14.0309866,23.4018922 16.2133677,22.7116862 18.0412338,21.5266154 L21.7002185,25.1762427 C22.7409964,26.2148075 24.3639594,26.2799213 25.3234265,25.3227487 C26.2796412,24.3655762 26.2145925,22.7409874 25.1770671,21.7024226 L25.1770671,21.7024226 Z M11.6827316,19.5080882 C7.383018,19.5080882 3.88990728,16.0179897 3.88990728,11.7074575 C3.88990728,7.40343669 7.37651313,3.90682675 11.6827316,3.90682675 C15.98895,3.90682675 19.4755558,7.39692532 19.4755558,11.7074575 C19.469051,16.0179897 15.9824451,19.5080882 11.6827316,19.5080882 L11.6827316,19.5080882 Z" id="形状"></path>
                        </g>
                    </g>
                </g>
            </g>
        </g>
    </g>
</svg>