<?xml version="1.0" encoding="UTF-8"?>
<svg width="76px" height="70px" viewBox="0 0 76 70" version="1.1" xmlns="http://www.w3.org/2000/svg" xmlns:xlink="http://www.w3.org/1999/xlink">
    <title>admin</title>
    <g id="页面-1" stroke="none" stroke-width="1" fill="none" fill-rule="evenodd">
        <g id="Extra-Large备份-2" transform="translate(-342, -136)" fill-rule="nonzero">
            <g id="admin" transform="translate(342, 136)">
                <path d="M31.9525714,44.9184615 C32.3219095,43.8185387 33.359637,43.0766439 34.5284286,43.0769229 L41.4715714,43.0769229 C42.640363,43.0766439 43.6780905,43.8185387 44.0474286,44.9184615 L45.6922857,49.8157692 C45.9742502,50.6534198 45.8241376,51.5749726 45.2905714,52.2819231 L40.1714286,59.0503846 C39.6588238,59.7283235 38.8543412,60.1273078 38,60.1273078 C37.1456588,60.1273078 36.3411762,59.7283235 35.8285714,59.0503846 L30.7094286,52.2819231 C30.1758624,51.5749726 30.0257498,50.6534198 30.3077143,49.8157692 L31.9525714,44.9157692 L31.9525714,44.9184615 Z" id="路径" fill="#DB3868"></path>
                <path d="M54.2857143,16.1538461 C54.2857143,7.23232327 46.9943516,0 38,0 C29.0056484,0 21.7142857,7.23232327 21.7142857,16.1538461 L21.7142857,21.5384615 C21.7142857,30.4599844 29.0056484,37.6923076 38,37.6923076 C46.9943516,37.6923076 54.2857143,30.4599844 54.2857143,21.5384615 L54.2857143,16.1538461 L54.2857143,16.1538461 Z M16.2857143,43.0769154 C7.29136264,43.0769154 0,50.3092463 0,59.2307692 L0,64.6153846 C0,67.5892256 2.43045426,70 5.42857145,70 L70.5714285,70 C73.5695457,70 76,67.5892256 76,64.6153846 L76,59.2307692 C76,50.3092463 68.7086373,43.0769154 59.7142857,43.0769154 L58.33,43.0769154 C57.4918077,43.0763463 56.7003642,43.4599203 56.1857142,44.1161539 L42.2858572,61.8423076 C41.2574173,63.1545325 39.6756642,63.9221123 38,63.9221123 C36.3243358,63.9221123 34.7425827,63.1545325 33.7141428,61.8423076 L19.817,44.1161539 C19.3017653,43.4591727 18.5091453,43.075514 17.67,43.0769154 L16.2857143,43.0769154 L16.2857143,43.0769154 Z" id="形状" fill="#222222"></path>
            </g>
        </g>
    </g>
</svg>