<?xml version="1.0" encoding="UTF-8"?>
<svg width="76px" height="70px" viewBox="0 0 76 70" version="1.1" xmlns="http://www.w3.org/2000/svg" xmlns:xlink="http://www.w3.org/1999/xlink">
    <title>article</title>
    <g id="页面-1" stroke="none" stroke-width="1" fill="none" fill-rule="evenodd">
        <g id="Extra-Large备份-2" transform="translate(-114, -136)" fill-rule="nonzero">
            <g id="article" transform="translate(114, 136)">
                <path d="M0,32.3076924 C0,29.3338513 2.43045422,26.9230769 5.42857145,26.9230769 L70.5714285,26.9230769 C73.5695457,26.9230769 76,29.3338513 76,32.3076924 L76,59.2307692 C76,62.0869469 74.8561257,64.8261429 72.8200165,66.8457654 C70.7839072,68.8653879 68.0223504,70 65.1428571,70 L10.8571429,70 C7.97764958,70 5.2160928,68.8653879 3.17998354,66.8457654 C1.14387428,64.8261429 0,62.0869469 0,59.2307692 L0,32.3076924 Z" id="路径" fill="#222222"></path>
                <path d="M5.42857145,10.7692308 C5.42857145,4.82154884 10.2894799,0 16.2857143,0 L59.7142857,0 C65.7105201,0 70.5714285,4.82154884 70.5714285,10.7692308 L70.5714285,40.3846154 C70.5714285,41.8715359 69.3562015,43.0769231 67.8571428,43.0769231 L56.3214285,43.0769231 C55.1971346,43.0769231 54.2857143,43.9809635 54.2857143,45.0961539 C54.2857143,45.6316871 54.0712379,46.1452864 53.6894674,46.5239656 C53.3076969,46.9026449 52.789905,47.1153846 52.25,47.1153846 L23.75,47.1153846 C22.6257061,47.1153846 21.7142857,46.2113443 21.7142857,45.0961539 C21.7142857,43.9809635 20.8028654,43.0769231 19.6785715,43.0769231 L8.14285714,43.0769231 C6.64379854,43.0769231 5.42857145,41.8715359 5.42857145,40.3846154 L5.42857145,10.7692308 Z" id="路径" fill="#A0A0A0"></path>
                <path d="M17.6428572,13.4615384 C17.6428572,11.2311577 19.4656978,9.42307687 21.7142857,9.42307687 L54.2857143,9.42307687 C56.5343022,9.42307687 58.3571427,11.2311577 58.3571427,13.4615384 C58.3571427,15.6919191 56.5343022,17.5 54.2857143,17.5 L21.7142857,17.5 C19.4656978,17.5 17.6428572,15.6919192 17.6428572,13.4615384 Z M17.6428572,28.665 C17.6428572,26.4346193 19.4656978,24.6265385 21.7142857,24.6265385 L54.2857143,24.6265385 C55.7402956,24.6265385 57.0843842,25.3962649 57.8116749,26.6457692 C58.5389656,27.8952736 58.5389656,29.4347265 57.8116749,30.6842309 C57.0843842,31.9337352 55.7402956,32.7034616 54.2857143,32.7034616 L21.7142857,32.7034616 C19.4656978,32.7034616 17.6428572,30.8953808 17.6428572,28.665 L17.6428572,28.665 Z M23.0714286,56.5384616 C23.0714286,54.3080808 24.8942693,52.5 27.1428572,52.5 L48.8571428,52.5 C51.1057306,52.5 52.9285713,54.3080809 52.9285713,56.5384616 C52.9285713,58.7688422 51.1057306,60.5769231 48.8571428,60.5769231 L27.1428572,60.5769231 C24.8942693,60.5769231 23.0714286,58.7688423 23.0714286,56.5384616 Z" id="形状" fill="#FFFFFF"></path>
            </g>
        </g>
    </g>
</svg>