<?xml version="1.0" encoding="UTF-8"?>
<svg width="64px" height="70px" viewBox="0 0 64 70" version="1.1" xmlns="http://www.w3.org/2000/svg" xmlns:xlink="http://www.w3.org/1999/xlink">
    <title>book</title>
    <g id="页面-1" stroke="none" stroke-width="1" fill="none" fill-rule="evenodd">
        <g id="Extra-Large备份-2" transform="translate(-456, -138)" fill-rule="nonzero">
            <g id="book" transform="translate(456, 138)">
                <path d="M0,10 C0,7.34783514 1.03735963,4.804296 2.88387166,2.9289322 C4.7303837,1.05356841 7.23479146,0 9.84615379,0 L54.1538462,0 C56.7652085,0 59.2696163,1.05356841 61.1161283,2.9289322 C62.9626404,4.804296 64,7.34783514 64,10 L64,61 C64,63.209139 62.2366907,65 60.0615385,65 C59.5177504,65 59.0769232,65.4477152 59.0769232,66 C59.0769232,67.060866 58.6619792,68.0782816 57.9233744,68.8284271 C57.1847696,69.5785727 56.1830064,70 55.1384616,70 L9.84615379,70 C7.23479146,70 4.7303837,68.9464316 2.88387166,67.0710678 C1.03735963,65.195704 0,62.6521648 0,60 L0,10 Z" id="路径" fill="#222222"></path>
                <path d="M59.0769232,12.5 C59.0769232,8.35786439 55.7707182,4.99999999 51.6923077,4.99999999 L9.84615379,4.99999999 C8.08716593,4.99999999 6.461703,5.95273113 5.58214759,7.49982531 C4.70259218,9.04691948 4.70259218,10.9530805 5.58214759,12.5001748 C6.461703,14.0472689 8.08716593,15.0002162 9.84615379,15 L46.7692307,15 C50.8476412,15 54.1538462,18.3578644 54.1538462,22.5 L54.1538462,70 C56.8727865,70 59.0769232,67.7614237 59.0769232,65 L59.0769232,12.5 Z" id="路径" fill="#A0A0A0"></path>
                <path d="M14.7692307,22.5 C14.7692307,21.1192882 15.8712991,20 17.2307693,20 L27.0769231,20 C27.7297637,20 28.3558656,20.263392 28.8174936,20.732233 C29.2791216,21.2010739 29.5384616,21.8369588 29.5384616,22.5 L29.5384616,42.665 C29.5382272,43.1256896 29.2885115,43.5489058 28.8886168,43.7663518 C28.488722,43.9837978 28.0034775,43.9602222 27.6258462,43.705 L23.52,40.925 C22.6928323,40.3645011 21.61486,40.3645011 20.7876923,40.925 L16.6818462,43.705 C16.3042149,43.9602222 15.8189703,43.9837978 15.4190756,43.7663518 C15.0191808,43.5489058 14.7694651,43.1256896 14.7692307,42.665 L14.7692307,22.5 Z" id="路径" fill="#FFFFFF"></path>
            </g>
        </g>
    </g>
</svg>