<?xml version="1.0" encoding="UTF-8"?>
<svg width="72px" height="72px" viewBox="0 0 72 72" version="1.1" xmlns="http://www.w3.org/2000/svg" xmlns:xlink="http://www.w3.org/1999/xlink">
    <title>question</title>
    <g id="页面-1" stroke="none" stroke-width="1" fill="none" fill-rule="evenodd">
        <g id="Extra-Large备份-2" transform="translate(-561, -137)" fill-rule="nonzero">
            <g id="question" transform="translate(561, 137)">
                <path d="M0,36 C0,48.861561 6.861561,60.7461338 18,67.1769145 C29.1384387,73.6076952 42.8615613,73.6076952 54,67.1769145 C65.138439,60.7461338 72,48.861561 72,36 C72,16.1177489 55.882251,0 36,0 C16.117749,0 0,16.1177489 0,36 Z" id="路径" fill="#222222"></path>
                <path d="M49.6234285,19.650857 C53.0627542,26.0823156 51.4789263,34.0477535 45.8408572,38.6742854 C44.8405715,39.4919997 43.7425715,40.165714 42.5957143,40.6954282 C41.6828572,41.1145711 40.9191429,41.6674282 40.428,42.2279996 C39.9574285,42.7679996 39.8571428,43.1614282 39.8571428,43.4288568 L39.8571428,43.7142853 C39.8571428,45.8445265 38.1302412,47.5714282 36,47.5714282 C33.8697588,47.5714282 32.1428572,45.8445265 32.1428572,43.7142853 L32.1428572,43.4288568 C32.1428572,38.2834282 36.342,35.0794283 39.3737143,33.6831426 C39.9368665,33.426654 40.4648714,33.0991354 40.9448572,32.7085712 C43.2414676,30.822776 44.2223657,27.7677237 43.4528026,24.8974596 C42.6832394,22.0271956 40.3055606,19.8726308 37.3735894,19.388701 C34.4416182,18.9047711 31.4976795,20.1809885 29.8465714,22.6517142 C28.8257143,24.1791427 28.3602856,25.9379998 28.5248572,27.5991426 C28.6599036,28.9707363 28.0529551,30.3101875 26.9326433,31.112938 C25.8123316,31.9156883 24.3488586,32.0597812 23.0935005,31.490938 C21.8381423,30.9220947 20.9816178,29.7267363 20.8465715,28.3551426 C20.4917144,24.7551426 21.5151429,21.2322856 23.4334285,18.3651427 C26.4182292,13.8995182 31.5276876,11.3279997 36.8925244,11.5913692 C42.2573611,11.8547387 47.0903772,14.9143512 49.6234285,19.650857 L49.6234285,19.650857 Z M36,50.1428567 C38.1302412,50.1428567 39.8571428,51.8697584 39.8571428,53.9999995 L39.8571428,56.5714281 C39.8571428,58.7016692 38.1302412,60.4285708 36,60.4285708 C33.8697588,60.4285708 32.1428572,58.7016692 32.1428572,56.5714281 L32.1428572,53.9999995 C32.1428572,51.8697584 33.8697588,50.1428567 36,50.1428567 L36,50.1428567 Z" id="形状" fill="#FFFFFF"></path>
            </g>
        </g>
    </g>
</svg>