<?xml version="1.0" standalone="no"?><!DOCTYPE svg PUBLIC "-//W3C//DTD SVG 1.1//EN"
        "http://www.w3.org/Graphics/SVG/1.1/DTD/svg11.dtd">
<svg class="icon" width="200px" height="200.00px" viewBox="0 0 1024 1024" version="1.1"
     xmlns="http://www.w3.org/2000/svg">
    <path d="M85.333333 170.666667a85.333333 85.333333 0 0 1 85.333334-85.333334h490.666666a85.333333 85.333333 0 0 1 85.333334 85.333334v768H170.666667a85.333333 85.333333 0 0 1-85.333334-85.333334V170.666667z m202.666667 128a32 32 0 0 0 0 64h277.333333a32 32 0 0 0 0-64h-277.333333z m0 170.666666a32 32 0 0 0 0 64h192a32 32 0 0 0 0-64h-192zM256 672a32 32 0 0 1 32-32h106.666667a32 32 0 0 1 0 64h-106.666667a32 32 0 0 1-32-32z"
          fill="#000000"/>
    <path d="M810.666667 298.666667h42.666666a85.333333 85.333333 0 0 1 85.333334 85.333333v469.333333a85.333333 85.333333 0 0 1-85.333334 85.333334h-42.666666V298.666667z"
          fill="#000000"/>
</svg>