<?xml version="1.0" encoding="UTF-8"?>
<svg width="76px" height="70px" viewBox="0 0 76 70" version="1.1" xmlns="http://www.w3.org/2000/svg" xmlns:xlink="http://www.w3.org/1999/xlink">
    <title>user</title>
    <g id="页面-1" stroke="none" stroke-width="1" fill="none" fill-rule="evenodd">
        <g id="Extra-Large备份-2" transform="translate(-228, -136)" fill-rule="nonzero">
            <g id="user" transform="translate(228, 136)">
                <path d="M54.2857143,16.1538461 C54.2857143,7.23232327 46.9943516,0 38,0 C29.0056484,0 21.7142857,7.23232327 21.7142857,16.1538461 L21.7142857,21.5384615 C21.7142857,30.4599844 29.0056484,37.6923076 38,37.6923076 C46.9943516,37.6923076 54.2857143,30.4599844 54.2857143,21.5384615 L54.2857143,16.1538461 L54.2857143,16.1538461 Z M16.2857143,43.0769231 C7.29136264,43.0769231 0,50.3092463 0,59.2307692 L0,64.6153846 C0,67.5892256 2.43045426,70 5.42857145,70 L70.5714285,70 C73.5695457,70 76,67.5892256 76,64.6153846 L76,59.2307692 C76,50.3092463 68.7086373,43.0769231 59.7142857,43.0769231 L16.2857143,43.0769231 L16.2857143,43.0769231 Z" id="形状" fill="#222222"></path>
                <path d="M27.1428572,43.0769231 L48.8571429,43.0769231 C57.8514945,43.0769231 65.1428571,50.3092463 65.1428571,59.2307692 L65.1428571,64.6153846 C65.1428571,67.5892256 62.7124029,70 59.7142857,70 L16.2857143,70 C13.2875971,70 10.8571429,67.5892256 10.8571429,64.6153846 L10.8571429,59.2307692 C10.8571429,50.3092463 18.1485055,43.0769231 27.1428572,43.0769231 Z" id="路径" fill-opacity="0.401715472" fill="#A0A0A0"></path>
            </g>
        </g>
    </g>
</svg>